<svg xmlns="http://www.w3.org/2000/svg" xmlns:xlink="http://www.w3.org/1999/xlink" id="Capa_1" x="0px" y="0px" viewBox="0 0 1224.6 289.7" style="enable-background:new 0 0 1224.6 289.7;" xml:space="preserve"><style type="text/css">	.st0{fill:#003595;}	.st1{fill:#FF5100;}	.st2{clip-path:url(#SVGID_8_);fill:url(#SVGID_9_);}</style><path class="st0" d="M366,98.8c-28.8,0-49.2,10.1-49.2,10.1l6.1,29.9c35.4-16.4,55.9-8.5,55.9,5.8s0,20.2,0,20.2s-6.8,0-28.4,0 s-42,12.8-42,44.3s11.9,46.4,37.2,46.4c25.3,0,36.3-13.7,36.3-13.7s3.3,10.8,7.7,10.8c4.4,0,24,0,24,0s-0.1-88.3-0.1-114.7 C413.6,111.5,394.8,98.7,366,98.8 M378.2,223.1c-6.4,6.6-34.3,11.3-34.3-10.5s11.4-20.7,18.2-20.7c6.8,0,16.1,0.2,16.1,0.2 S378.2,215,378.2,223.1"></path><path class="st0" d="M605.2,98.5c-28.8,0-49.2,10.1-49.2,10.1l6.1,29.9c35.4-16.4,55.9-8.5,55.9,5.8s0,20.2,0,20.2s-6.8,0-28.4,0 c-21.6,0-42,12.8-42,44.3s11.9,46.4,37.3,46.4c25.3,0,36.3-13.7,36.3-13.7s3.3,10.8,7.7,10.8s24,0,24,0s-0.1-88.3-0.1-114.7 C652.8,111.2,634.1,98.5,605.2,98.5 M617.4,222.9c-6.4,6.6-34.3,11.3-34.3-10.5s11.4-20.7,18.2-20.7s16.1,0.2,16.1,0.2 S617.4,214.7,617.4,222.9"></path><path class="st0" d="M464.9,110.3c0-34.5-0.1-68.9-0.1-68.9h-35.2l1.3,207.6c20,6.4,26.6,6.6,45.6,6.6c18.9,0,59.4-4.5,59.4-46.7 c0-42.3,0-43.4-0.1-72.9C535.8,102.1,503.8,87.2,464.9,110.3 M501.1,212.9c0,10.6-9.7,13.4-18.7,13.4s-17.4-0.4-17.4-0.4l-0.1-89.2 c0,0,8.3-7.1,21.6-7.1c13.2,0,14.8,6.2,14.8,13.4C501.3,150.4,501.1,202.3,501.1,212.9"></path><path class="st0" d="M957,109.9c0-34.6,0-68.9,0-68.9h-35.2l1.3,207.6c20,6.4,26.6,6.6,45.6,6.6c18.9,0,59.4-4.4,59.4-46.7 s0-43.4-0.1-72.9C1027.9,101.7,996,86.7,957,109.9 M993.2,212.4c0,10.6-9.6,13.4-18.7,13.4c-9,0-17.4-0.4-17.4-0.4l-0.1-89.2 c0,0,8.4-7,21.5-7c13.2,0,14.8,6.1,14.8,13.4C993.4,149.9,993.2,201.9,993.2,212.4"></path><path class="st0" d="M727.1,161.8c-16.1-5.2-24.6-8.1-24.7-20.7c0-7.5,4.2-12.8,16.5-12.8c17.2,0,33.5,5.5,33.5,5.5l4.2-28.6 c0,0-22.2-7-39.4-7s-50.1,4.3-49.2,44.5c0.8,38.6,20.5,43.3,40.3,51.3c12.1,4.8,20.5,10.4,18.1,20.7c-2.3,9.8-8.3,13.9-24.6,11.4 c-16.3-2.4-26.4-6.8-26.4-6.8l-5.7,29.9c0,0,15.6,4.7,38.4,7.5c39.6,4.9,50.8-19.8,52.6-46.8C762.1,186,755.7,171.1,727.1,161.8"></path><path class="st0" d="M820.8,58.1L786.3,63v39h-17v32.1h17c0,0,0,64.5,0.1,89.2c0,24.6,16.1,31.9,32.6,31.9s29.5-4.6,29.5-4.6 l-2-27.7c-19.1,8.8-26.2,0.4-26.2-6.8c0-7.3-0.1-81.9-0.1-81.9h28.4l2.2-32.1h-30.6L820.8,58.1z"></path><polygon class="st0" points="867.5,252.1 902.7,252.1 902.5,102.6 867.3,102.7 "></polygon><polygon class="st0" points="1046.7,252 1081.9,252 1081.7,41.4 1046.5,41.5 "></polygon><polygon class="st0" points="902.5,41.9 867.3,41.9 867.3,83.3 902.5,83.3 "></polygon><path class="st0" d="M1201.1,247.1l-6.4-27.1c0,0-12.3,6.4-32.3,6.4c-19.9,0-27.5-7.8-27.6-20.1c0-12.3,0-16.9,0-16.9l66-0.1 c0,0,0-21.8,0-46.1c0-24.2-16.6-44.8-49.7-44.8c-33,0-51,24.3-51,46.6s0,46.6,0.1,67.7c0,21.1,18.5,42.2,52,42.2s48.9-6.9,48.9-6.9 V247.1z M1134.7,140.2c0-9.7,8.6-13.8,16.7-13.8c7.1,0,16.8,2.1,16.8,13.8c0,12.8,0,22,0,22h-33.7 C1134.5,162.2,1134.7,149.9,1134.7,140.2"></path><path class="st1" d="M154.5,166.9c30.2-73.4,57.1-94.2,77.8-94.4c15.8,0,25.6,10.6,27.8,14.8c29.4,55.8,13,125.9-40.4,161.9 c-55.3,37.3-129.8,24.4-169.5-28.3C82.5,238.2,124.5,239.8,154.5,166.9"></path><path class="st1" d="M203.7,43.6c10.1,1.9,19.8,4.7,29,8.4c-16.6-15.3-37.6-26.2-61.4-30.7c-67.8-12.7-133,32-145.7,99.8 c-2.2,11.8-2.6,23.5-1.6,34.8C45.4,78.2,123.1,28.5,203.7,43.6"></path><g>	<g>		<defs>			<path id="SVGID_1_" d="M25.6,121.1c-2.2,11.8-2.6,23.5-1.6,34.8C45.3,78.2,123,28.5,203.6,43.5c10.1,1.9,19.8,4.8,29,8.4    C216,36.6,195,25.7,171.2,21.2c-7.8-1.4-15.5-2.1-23.1-2.2C89.3,19.1,36.9,61.1,25.6,121.1"></path>		</defs>		<clipPath id="SVGID_2_">			<use xlink:href="#SVGID_1_" style="overflow:visible;"></use>		</clipPath>	</g></g><g>	<g>		<defs>			<path id="SVGID_3_" d="M154.5,166.9c-30,73-72,71.3-104.2,54c39.7,52.7,114.1,65.7,169.5,28.3c53.4-36,69.8-106.1,40.4-161.9    c-2.2-4.2-12-14.8-27.8-14.8C211.6,72.7,184.7,93.4,154.5,166.9"></path>		</defs>		<clipPath id="SVGID_4_">			<use xlink:href="#SVGID_3_" style="overflow:visible;"></use>		</clipPath>	</g></g><g>	<g>		<defs>			<path id="SVGID_5_" d="M25.6,121.1c-2.2,11.8-2.6,23.5-1.5,34.8c21.3-77.7,99-127.4,179.6-112.4c10.1,1.9,19.8,4.8,29.1,8.4    c-16.6-15.3-37.6-26.2-61.4-30.7c-7.8-1.4-15.5-2.1-23.1-2.2C89.3,19.1,36.9,61.1,25.6,121.1"></path>		</defs>		<clipPath id="SVGID_6_">			<use xlink:href="#SVGID_5_" style="overflow:visible;"></use>		</clipPath>	</g></g><g>	<g>		<defs>			<path id="SVGID_7_" d="M153.4,64.9c0,0-69.4,36.6-74.6,39.8c-88.1,53-30,114.7-30,114.7c-13.5-15.5-4.9-34.6,8.4-45    c17.8-13.8,51.7-28.6,67.2-35.5c35.3-15.7,56.6-46.2,52-91.8C170.1,54.1,162.4,60.2,153.4,64.9"></path>		</defs>		<clipPath id="SVGID_8_">			<use xlink:href="#SVGID_7_" style="overflow:visible;"></use>		</clipPath>					<linearGradient id="SVGID_9_" gradientUnits="userSpaceOnUse" x1="-77.8518" y1="-274.1474" x2="-72.1595" y2="-274.1474" gradientTransform="matrix(-18.358 31.8351 31.8351 18.358 7435.5771 7555.4507)">			<stop offset="0" style="stop-color:#C4CF35"></stop>			<stop offset="0.2341" style="stop-color:#83BD41"></stop>			<stop offset="0.2999" style="stop-color:#7AB84E"></stop>			<stop offset="0.4222" style="stop-color:#61AC71"></stop>			<stop offset="0.5862" style="stop-color:#3898A8"></stop>			<stop offset="0.666" style="stop-color:#238EC6"></stop>			<stop offset="0.7384" style="stop-color:#2682BD"></stop>			<stop offset="1" style="stop-color:#325CA1"></stop>		</linearGradient>		<path class="st2" d="M26.4-14.6l-98.3,170.4c-6.6,11.4-2.7,26,8.7,32.6l176.1,101.6c11.4,6.6,26,2.7,32.6-8.7l98.2-170.4   c6.6-11.4,2.7-26-8.7-32.5L59-23.4C47.5-30,33-26.1,26.4-14.6z"></path>	</g></g></svg>